<svg width="24" height="24" viewBox="0 0 24 24" fill="none" xmlns="http://www.w3.org/2000/svg">
<path d="M5.77778 12.2807H4L12 4L20 12.2807H18.2222" stroke="white" stroke-width="1.25" stroke-linecap="round" stroke-linejoin="round"/>
<path d="M5.77783 12.2807V18.7212C5.77783 19.2093 5.96513 19.6773 6.29853 20.0224C6.63193 20.3675 8.86185 20.5614 9.33335 20.5614M14.6667 20.5614C15.1382 20.5614 17.3682 20.3675 17.7016 20.0224C18.035 19.6773 18.2223 19.2093 18.2223 18.7212V12.2807" stroke="white" stroke-width="1.25" stroke-linecap="round" stroke-linejoin="round"/>
<path d="M9.33301 20.5614V15.041C9.33301 14.5529 9.52031 14.0849 9.85371 13.7398C10.1871 13.3947 10.6393 13.2008 11.1108 13.2008H12.8886C13.3601 13.2008 13.8122 13.3947 14.1456 13.7398C14.479 14.0849 14.6663 14.5529 14.6663 15.041V20.5614" stroke="white" stroke-width="1.25" stroke-linecap="round" stroke-linejoin="round"/>
</svg>
