<svg width="24" height="24" viewBox="0 0 24 24" fill="none" xmlns="http://www.w3.org/2000/svg">
<g clip-path="url(#clip0_561_2654)">
<path d="M4 12C4 13.0506 4.20693 14.0909 4.60896 15.0615C5.011 16.0321 5.60028 16.914 6.34315 17.6569C7.08601 18.3997 7.96793 18.989 8.93853 19.391C9.90914 19.7931 10.9494 20 12 20C13.0506 20 14.0909 19.7931 15.0615 19.391C16.0321 18.989 16.914 18.3997 17.6569 17.6569C18.3997 16.914 18.989 16.0321 19.391 15.0615C19.7931 14.0909 20 13.0506 20 12C20 10.9494 19.7931 9.90914 19.391 8.93853C18.989 7.96793 18.3997 7.08601 17.6569 6.34315C16.914 5.60028 16.0321 5.011 15.0615 4.60896C14.0909 4.20693 13.0506 4 12 4C10.9494 4 9.90914 4.20693 8.93853 4.60896C7.96793 5.011 7.08601 5.60028 6.34315 6.34315C5.60028 7.08601 5.011 7.96793 4.60896 8.93853C4.20693 9.90914 4 10.9494 4 12Z" stroke="white" stroke-width="1.25" stroke-linecap="round" stroke-linejoin="round"/>
<path d="M12 16.4445V16.4533" stroke="white" stroke-width="1.25" stroke-linecap="round" stroke-linejoin="round"/>
<path d="M11.9999 13.3334C11.9836 13.0448 12.0614 12.7588 12.2217 12.5183C12.3821 12.2778 12.6162 12.0959 12.8888 12C13.2229 11.8723 13.5228 11.6687 13.7649 11.4053C14.007 11.142 14.1846 10.826 14.2838 10.4823C14.383 10.1387 14.4011 9.77665 14.3366 9.42481C14.2721 9.07296 14.1268 8.74088 13.9122 8.45472C13.6976 8.16855 13.4195 7.93611 13.0998 7.7757C12.78 7.61528 12.4275 7.53127 12.0697 7.53028C11.712 7.52929 11.359 7.61134 11.0384 7.76998C10.7178 7.92862 10.4384 8.15951 10.2222 8.44448" stroke="white" stroke-width="1.25" stroke-linecap="round" stroke-linejoin="round"/>
</g>
<defs>
<clipPath id="clip0_561_2654">
<rect width="24" height="24" fill="white"/>
</clipPath>
</defs>
</svg>
