<svg width="24" height="24" viewBox="0 0 24 24" fill="none" xmlns="http://www.w3.org/2000/svg">
<g clip-path="url(#clip0_568_843)">
<path d="M9.3329 11.1111C11.2966 11.1111 12.8885 9.51923 12.8885 7.55556C12.8885 5.59188 11.2966 4 9.3329 4C7.36922 4 5.77734 5.59188 5.77734 7.55556C5.77734 9.51923 7.36922 11.1111 9.3329 11.1111Z" stroke="white" stroke-width="1.25" stroke-linecap="round" stroke-linejoin="round"/>
<path d="M4 20V18.2222C4 17.2792 4.3746 16.3749 5.0414 15.7081C5.70819 15.0413 6.61256 14.6667 7.55556 14.6667H11.1111C12.0541 14.6667 12.9585 15.0413 13.6253 15.7081C14.2921 16.3749 14.6667 17.2792 14.6667 18.2222V20" stroke="white" stroke-width="1.25" stroke-linecap="round" stroke-linejoin="round"/>
<path d="M15.5557 11.1111L17.3334 12.8889L20.889 9.33333" stroke="white" stroke-width="1.25" stroke-linecap="round" stroke-linejoin="round"/>
</g>
<defs>
<clipPath id="clip0_568_843">
<rect width="24" height="24" fill="white"/>
</clipPath>
</defs>
</svg>
